HIERARCHY
ROOT joint_0
{
	OFFSET 0.000000 0.000000 0.000000
	CHANNELS 6 Xposition Yposition Zposition Zrotation Yrotation Xrotation 
	JOINT joint_1
	{
		OFFSET 6.004005 -1.946999 100.587036
		CHANNELS 3 Zrotation Yrotation Xrotation
		JOINT joint_2
		{
			OFFSET -4.601006 -0.824997 91.925903
			CHANNELS 3 Zrotation Yrotation Xrotation
			JOINT joint_3
			{
				OFFSET -5.420998 -1.130005 91.774048
				CHANNELS 3 Zrotation Yrotation Xrotation
				JOINT joint_4
				{
					OFFSET 4.308998 -3.777992 123.473999
					CHANNELS 3 Zrotation Yrotation Xrotation
					JOINT joint_5
					{
						OFFSET 25.565002 -6.305008 79.437988
						CHANNELS 3 Zrotation Yrotation Xrotation
						End Site
						{
							OFFSET 0.000000 0.000000 0.000000
						}
					}
				}
				JOINT joint_6
				{
					OFFSET -1.750000 -28.655998 68.557983
					CHANNELS 3 Zrotation Yrotation Xrotation
					JOINT joint_7
					{
						OFFSET -17.692001 -116.544006 -17.244019
						CHANNELS 3 Zrotation Yrotation Xrotation
						JOINT joint_8
						{
							OFFSET 27.063004 -23.640991 -266.895020
							CHANNELS 3 Zrotation Yrotation Xrotation
							JOINT joint_9
							{
								OFFSET 40.722000 -15.761017 -232.488953
								CHANNELS 3 Zrotation Yrotation Xrotation
								End Site
								{
									OFFSET 0.000000 0.000000 0.000000
								}
							}
						}
					}
				}
				JOINT joint_10
				{
					OFFSET 6.593002 24.457001 69.892944
					CHANNELS 3 Zrotation Yrotation Xrotation
					JOINT joint_11
					{
						OFFSET 24.311996 114.920002 -19.872925
						CHANNELS 3 Zrotation Yrotation Xrotation
						JOINT joint_12
						{
							OFFSET 21.081001 15.319000 -268.037964
							CHANNELS 3 Zrotation Yrotation Xrotation
							JOINT joint_13
							{
								OFFSET 27.794006 -8.947001 -234.744080
								CHANNELS 3 Zrotation Yrotation Xrotation
								End Site
								{
									OFFSET 0.000000 0.000000 0.000000
								}
							}
						}
					}
				}
			}
		}
	}
	JOINT joint_14
	{
		OFFSET -6.627998 -80.520004 -98.790039
		CHANNELS 3 Zrotation Yrotation Xrotation
		JOINT joint_15
		{
			OFFSET -43.638000 -13.751999 -502.538971
			CHANNELS 3 Zrotation Yrotation Xrotation
			JOINT joint_16
			{
				OFFSET -39.532999 -9.912994 -398.071007
				CHANNELS 3 Zrotation Yrotation Xrotation
				JOINT joint_17
				{
					OFFSET 174.940004 -34.660995 -75.688002
					CHANNELS 3 Zrotation Yrotation Xrotation
					End Site
					{
						OFFSET 0.000000 0.000000 0.000000
					}
				}
			}
		}
	}
	JOINT joint_18
	{
		OFFSET 12.591003 79.842003 -98.765015
		CHANNELS 3 Zrotation Yrotation Xrotation
		JOINT joint_19
		{
			OFFSET -39.080002 -1.297001 -503.101013
			CHANNELS 3 Zrotation Yrotation Xrotation
			JOINT joint_20
			{
				OFFSET -51.570000 -0.514000 -396.815987
				CHANNELS 3 Zrotation Yrotation Xrotation
				JOINT joint_21
				{
					OFFSET 178.987999 -11.521999 -73.244003
					CHANNELS 3 Zrotation Yrotation Xrotation
					End Site
					{
						OFFSET 0.000000 0.000000 0.000000
					}
				}
			}
		}
	}
}
MOTION
Frames: 10
Frame Time: 0.016667
149.964000 -155.821000 1092.332030 -5.071534 3.501531 -2.514158 0.594779 0.532178 0.955233 0.584937 -0.089222 -0.158390 0.607047 0.075069 0.091466 -0.308364 4.517754 2.193582 0.000000 0.000000 0.000000 -0.381146 -0.796343 -0.990345 -0.669263 -0.347316 -3.923954 1.257767 -18.572143 -1.027990 0.000000 0.000000 0.000000 2.844424 -1.901844 2.962793 0.952501 -3.289600 7.945499 -0.047258 -5.970366 -2.367530 0.000000 0.000000 0.000000 1.079034 -5.487423 3.013362 0.555864 16.842949 0.910345 0.983371 -6.093736 -0.789637 0.000000 0.000000 0.000000 3.812639 -10.743275 4.169018 3.444416 25.625030 5.204000 4.607632 -5.363394 1.422238 0.000000 0.000000 0.000000 
154.158000 -157.871990 1092.056030 -5.386346 3.055580 -2.650232 0.655251 1.209296 1.080969 0.702970 -0.194880 -0.172985 0.738057 0.218156 0.132831 -0.323057 4.725774 2.304733 0.000000 0.000000 0.000000 -0.538390 -0.863494 -1.033023 -0.662566 -0.428194 -4.050473 1.359541 -19.305471 -0.826426 0.000000 0.000000 0.000000 2.732790 -2.129897 2.689890 0.999786 -3.610752 8.228530 -0.015238 -6.250150 -2.211652 0.000000 0.000000 0.000000 1.145135 -5.012360 3.280379 0.612946 17.324934 0.887397 0.975684 -6.203058 -0.814194 0.000000 0.000000 0.000000 4.013930 -12.281824 4.234271 3.371994 30.039989 6.065709 4.777661 -4.943082 1.481281 0.000000 0.000000 0.000000 
158.345990 -159.858000 1091.865970 -5.611912 2.559325 -2.750921 0.686868 1.954769 1.279117 0.854411 -0.317514 -0.250660 0.916623 0.373132 0.185386 -0.350859 4.888094 2.438111 0.000000 0.000000 0.000000 -0.794386 -0.938087 -1.086654 -0.648822 -0.534941 -4.154777 1.430841 -19.651724 -0.612997 0.000000 0.000000 0.000000 2.628645 -2.382157 2.339525 1.020052 -3.961119 8.430188 0.012709 -6.355851 -2.018723 0.000000 0.000000 0.000000 1.186133 -4.452350 3.528960 0.655718 17.762676 0.835933 0.933553 -6.286227 -0.847989 0.000000 0.000000 0.000000 4.302515 -14.123436 4.252938 3.251268 34.954956 7.038102 4.949438 -4.002989 1.561166 0.000000 0.000000 0.000000 
162.696000 -161.643010 1091.644040 -5.764928 2.104136 -2.833686 0.651867 2.654327 1.517434 1.015207 -0.431529 -0.338864 1.115002 0.506240 0.230380 -0.370665 4.987711 2.524887 0.000000 0.000000 0.000000 -1.024452 -0.973655 -1.180278 -0.630550 -0.618644 -4.161587 1.460920 -19.697126 -0.487654 0.000000 0.000000 0.000000 2.542428 -2.581838 2.029962 1.030885 -4.218340 8.464786 0.043648 -6.472610 -1.802192 0.000000 0.000000 0.000000 1.213539 -3.926974 3.743684 0.694983 18.215105 0.797234 0.876378 -6.367511 -0.887797 0.000000 0.000000 0.000000 4.667013 -16.161965 4.189138 3.068290 39.878001 8.064461 5.067709 -2.757068 1.630785 0.000000 0.000000 0.000000 
167.263000 -163.185000 1091.314940 -5.798281 1.779044 -2.879707 0.519183 3.187802 1.716270 1.151740 -0.496478 -0.366795 1.289091 0.586636 0.251974 -0.364078 5.010099 2.505399 0.000000 0.000000 0.000000 -1.143434 -0.931086 -1.346705 -0.607262 -0.647457 -3.973902 1.432659 -19.467824 -0.561674 0.000000 0.000000 0.000000 2.472624 -2.676497 1.857122 1.044615 -4.290287 8.256037 0.082906 -6.736539 -1.570658 0.000000 0.000000 0.000000 1.233627 -3.557218 3.881525 0.718151 18.752635 0.818652 0.796933 -6.481380 -0.943163 0.000000 0.000000 0.000000 5.121971 -18.485994 3.937974 2.805003 44.793640 9.214585 5.115075 -1.389525 1.673937 0.000000 0.000000 0.000000 
171.979000 -164.537000 1090.921020 -5.740543 1.536750 -2.918772 0.302090 3.623282 1.955942 1.287804 -0.533852 -0.387733 1.469696 0.627526 0.254974 -0.338432 4.964366 2.404745 0.000000 0.000000 0.000000 -1.193090 -0.829955 -1.569114 -0.579492 -0.639130 -3.627292 1.349659 -18.930297 -0.796242 0.000000 0.000000 0.000000 2.417724 -2.695168 1.774447 1.054463 -4.224477 7.838274 0.127537 -7.077370 -1.319322 0.000000 0.000000 0.000000 1.247103 -3.289532 3.989066 0.735493 19.351296 0.878682 0.696326 -6.600329 -1.008293 0.000000 0.000000 0.000000 5.721762 -21.108024 3.509934 2.470762 49.821595 10.520942 5.119036 0.272943 1.709621 0.000000 0.000000 0.000000 
177.110990 -165.475010 1090.467040 -5.724392 1.316728 -2.984422 0.065010 4.033334 2.288825 1.435174 -0.587713 -0.453382 1.673442 0.659780 0.259423 -0.308903 4.879824 2.281447 0.000000 0.000000 0.000000 -1.210936 -0.714135 -1.761219 -0.558809 -0.594183 -3.356292 1.254522 -18.188419 -0.999810 0.000000 0.000000 0.000000 2.403735 -2.635336 1.696110 1.059960 -4.063276 7.310667 0.173513 -7.432694 -1.056123 0.000000 0.000000 0.000000 1.252942 -2.994407 4.100292 0.782370 19.875859 0.920768 0.622527 -6.684955 -1.056183 0.000000 0.000000 0.000000 6.357058 -23.523610 3.066864 2.151383 54.005163 11.614635 5.017397 1.667917 1.697632 0.000000 0.000000 0.000000 
182.845000 -165.808000 1089.930050 -5.761730 1.121940 -3.034328 -0.154426 4.394524 2.635222 1.562889 -0.660125 -0.534619 1.861389 0.711038 0.282071 -0.282224 4.765319 2.160243 0.000000 0.000000 0.000000 -1.203477 -0.613227 -1.855449 -0.556062 -0.502721 -3.356183 1.180282 -17.315969 -1.015358 0.000000 0.000000 0.000000 2.466510 -2.480581 1.549887 1.066223 -3.825529 6.737759 0.219188 -7.818070 -0.795546 0.000000 0.000000 0.000000 1.233161 -2.613948 4.164563 0.849783 20.223824 0.917180 0.585523 -6.743999 -1.084373 0.000000 0.000000 0.000000 6.883741 -25.488406 2.660217 1.885773 56.911392 12.250107 4.741494 2.087569 1.583897 0.000000 0.000000 0.000000 
189.078990 -165.621000 1089.308960 -5.761025 0.995166 -3.034691 -0.366949 4.636370 2.939196 1.643943 -0.710231 -0.591422 1.992128 0.766832 0.316894 -0.252986 4.611207 2.020795 0.000000 0.000000 0.000000 -1.157939 -0.513686 -1.874241 -0.567527 -0.364517 -3.550742 1.111574 -16.266549 -0.912439 0.000000 0.000000 0.000000 2.593464 -2.229958 1.355453 1.074759 -3.498526 6.095582 0.265141 -8.253341 -0.536126 0.000000 0.000000 0.000000 1.182550 -2.213149 4.145733 0.905897 20.444790 0.897453 0.554474 -6.801349 -1.109773 0.000000 0.000000 0.000000 7.316458 -27.250106 2.194971 1.635733 59.012711 12.582074 4.334101 1.648273 1.383490 0.000000 0.000000 0.000000 
195.774000 -165.095000 1088.712040 -5.741036 0.880786 -3.023085 -0.554684 4.820613 3.226833 1.689759 -0.749035 -0.652387 2.080360 0.813097 0.358585 -0.231663 4.453083 1.906443 0.000000 0.000000 0.000000 -1.109221 -0.412355 -1.868119 -0.580148 -0.218891 -3.754693 1.023704 -15.024566 -0.842282 0.000000 0.000000 0.000000 2.717354 -1.946131 1.171760 1.065432 -3.127718 5.402370 0.307649 -8.493305 -0.233813 0.000000 0.000000 0.000000 1.115229 -1.777355 4.088755 0.957850 20.617363 0.872884 0.540057 -6.830213 -1.123102 0.000000 0.000000 0.000000 7.648112 -28.778804 1.789395 1.430526 60.185989 12.689875 3.957590 0.852412 1.183660 0.000000 0.000000 0.000000 
